<?xml version="1.0" encoding="utf-8"?>
<!-- Generator: Adobe Illustrator 25.4.1, SVG Export Plug-In . SVG Version: 6.00 Build 0)  -->
<svg version="1.1" id="Layer_1" xmlns="http://www.w3.org/2000/svg" xmlns:xlink="http://www.w3.org/1999/xlink" x="0px" y="0px"
	 viewBox="0 0 348 104" style="enable-background:new 0 0 348 104;" xml:space="preserve">
<style type="text/css">
	.st0{filter:url(#Adobe_OpacityMaskFilter);}
	.st1{fill:#FFFFFF;}
	.st2{mask:url(#SVGID_1_);}
	.st3{fill:url(#SVGID_00000150081450419136225410000018049354638288963223_);}
	.st4{fill:url(#SVGID_00000075133967195806839960000009606325858890908581_);}
	.st5{fill:url(#SVGID_00000174571997834461299010000003855226034317052067_);}
	.st6{fill:#606060;}
	.st7{fill:#1968AF;}
</style>
<defs>
	<filter id="Adobe_OpacityMaskFilter" filterUnits="userSpaceOnUse" x="-37.2" y="-82.5" width="448.9" height="174.1">
		<feColorMatrix  type="matrix" values="1 0 0 0 0  0 1 0 0 0  0 0 1 0 0  0 0 0 1 0"/>
	</filter>
</defs>
<mask maskUnits="userSpaceOnUse" x="-37.2" y="-82.5" width="448.9" height="174.1" id="SVGID_1_">
	<g class="st0">
		<g>
			<path class="st1" d="M116.8,27.4c-1.7,0-3.3-0.3-4.8-0.8c-1.5-0.6-2.7-1.4-3.8-2.4c-1.1-1-1.9-2.3-2.5-3.7
				c-0.6-1.4-0.9-3-0.9-4.6s0.3-3.2,0.9-4.6c0.6-1.4,1.4-2.6,2.5-3.7c1.1-1,2.4-1.9,3.8-2.4c1.5-0.6,3.1-0.8,4.9-0.8
				c2,0,3.7,0.3,5.3,1c1.6,0.7,2.9,1.6,4,2.9l-3.3,3.1c-0.8-0.9-1.7-1.5-2.6-1.9c-0.9-0.4-2-0.6-3.1-0.6c-1.1,0-2.1,0.2-2.9,0.5
				c-0.9,0.3-1.6,0.8-2.3,1.5c-0.6,0.6-1.1,1.4-1.5,2.3c-0.3,0.9-0.5,1.8-0.5,2.9c0,1,0.2,2,0.5,2.9c0.3,0.9,0.8,1.6,1.5,2.3
				c0.6,0.7,1.4,1.1,2.3,1.5c0.9,0.3,1.8,0.5,2.9,0.5c1,0,2-0.2,2.9-0.5c1-0.3,1.9-0.9,2.8-1.7l2.9,3.7c-1.2,0.9-2.6,1.6-4.2,2.1
				C119.9,27.2,118.4,27.4,116.8,27.4z M121,23.9v-8.4h4.7v9.1L121,23.9z"/>
			<path class="st1" d="M142.1,27.4c-1.7,0-3.4-0.3-4.8-0.9c-1.5-0.6-2.8-1.4-3.8-2.4c-1.1-1-1.9-2.3-2.5-3.7
				c-0.6-1.4-0.9-2.9-0.9-4.6c0-1.7,0.3-3.2,0.9-4.6c0.6-1.4,1.4-2.6,2.5-3.7c1.1-1,2.4-1.9,3.8-2.4c1.5-0.6,3.1-0.9,4.8-0.9
				c1.7,0,3.3,0.3,4.8,0.9c1.5,0.6,2.7,1.4,3.8,2.4c1.1,1,1.9,2.3,2.5,3.7c0.6,1.4,0.9,2.9,0.9,4.6c0,1.7-0.3,3.2-0.9,4.6
				c-0.6,1.4-1.5,2.6-2.5,3.7c-1.1,1-2.4,1.8-3.8,2.4C145.4,27.1,143.8,27.4,142.1,27.4z M142.1,23c1,0,1.9-0.2,2.7-0.5
				c0.8-0.3,1.6-0.8,2.2-1.5c0.6-0.6,1.1-1.4,1.5-2.3c0.3-0.9,0.5-1.8,0.5-2.9s-0.2-2-0.5-2.9c-0.3-0.9-0.8-1.6-1.5-2.3
				c-0.6-0.6-1.4-1.1-2.2-1.5c-0.8-0.3-1.8-0.5-2.7-0.5c-1,0-1.9,0.2-2.7,0.5c-0.8,0.3-1.6,0.8-2.2,1.5c-0.6,0.6-1.1,1.4-1.5,2.3
				c-0.3,0.9-0.5,1.8-0.5,2.9c0,1,0.2,2,0.5,2.9c0.3,0.9,0.8,1.6,1.5,2.3c0.6,0.6,1.4,1.1,2.2,1.5C140.2,22.8,141.1,23,142.1,23z"/>
			<path class="st1" d="M158.9,27V4.6h10c2.4,0,4.5,0.5,6.3,1.4c1.8,0.9,3.3,2.2,4.3,3.9s1.5,3.6,1.5,5.9c0,2.3-0.5,4.2-1.5,5.9
				c-1,1.7-2.5,3-4.3,3.9c-1.8,0.9-3.9,1.4-6.3,1.4H158.9z M164.1,22.8h4.7c1.5,0,2.7-0.3,3.8-0.8c1.1-0.6,1.9-1.4,2.5-2.4
				c0.6-1,0.9-2.3,0.9-3.7c0-1.4-0.3-2.7-0.9-3.7c-0.6-1-1.4-1.8-2.5-2.4c-1.1-0.6-2.4-0.8-3.8-0.8h-4.7V22.8z"/>
			<path class="st1" d="M185.9,27V4.6h9.6c2,0,3.7,0.3,5.1,1c1.4,0.7,2.5,1.6,3.3,2.8c0.8,1.2,1.2,2.7,1.2,4.4
				c0,1.7-0.4,3.1-1.2,4.3c-0.8,1.2-1.9,2.1-3.3,2.8c-1.4,0.6-3.1,1-5.1,1h-6.7l2.3-2.3V27H185.9z M191.1,19.1l-2.3-2.4h6.4
				c1.6,0,2.8-0.3,3.5-1c0.8-0.7,1.2-1.6,1.2-2.9c0-1.2-0.4-2.2-1.2-2.9c-0.8-0.7-2-1-3.5-1h-6.4l2.3-2.5V19.1z M200,27l-5.5-8.1
				h5.5l5.6,8.1H200z"/>
			<path class="st1" d="M215.1,22.9h12V27h-17.1V4.6h16.7v4.2h-11.6V22.9z M214.8,13.7h10.6v4h-10.6V13.7z"/>
			<path class="st1" d="M236.2,27.4c-1.5,0-2.9-0.3-4.1-0.8c-1.3-0.6-2.3-1.4-3.1-2.4l2.8-3.5c0.6,0.8,1.3,1.4,1.9,1.8
				c0.7,0.4,1.4,0.6,2.2,0.6c2.1,0,3.1-1.2,3.1-3.7V8.8h-7.8V4.6h12.8v14.5c0,2.8-0.7,4.8-2,6.2C240.8,26.7,238.9,27.4,236.2,27.4z"
				/>
		</g>
	</g>
</mask>
<g class="st2">
	
		<radialGradient id="SVGID_00000068645528402769649680000015471763055668506544_" cx="92.3146" cy="71.7851" r="107.0039" gradientTransform="matrix(1.285 0 0 1 -7.2296 0)" gradientUnits="userSpaceOnUse">
		<stop  offset="0" style="stop-color:#CF417D"/>
		<stop  offset="1" style="stop-color:#C0296D"/>
	</radialGradient>
	
		<ellipse style="fill:url(#SVGID_00000068645528402769649680000015471763055668506544_);" cx="139.5" cy="11.7" rx="176.7" ry="79.8"/>
	
		<radialGradient id="SVGID_00000093135630999938136340000014350824446392776075_" cx="200.3287" cy="3.2357" r="55.993" gradientTransform="matrix(1.7272 0 0 1 -17.6628 0)" gradientUnits="userSpaceOnUse">
		<stop  offset="0" style="stop-color:#51B4E6"/>
		<stop  offset="6.474800e-02" style="stop-color:#51B4E6"/>
		<stop  offset="0.317" style="stop-color:#46A9DF"/>
		<stop  offset="0.7633" style="stop-color:#288DCB"/>
		<stop  offset="1" style="stop-color:#157CBF"/>
	</radialGradient>
	
		<ellipse style="fill:url(#SVGID_00000093135630999938136340000014350824446392776075_);" cx="195.3" cy="-27.9" rx="216.3" ry="48.8"/>
	
		<radialGradient id="SVGID_00000178924552423931714640000017818584758253644202_" cx="172.2124" cy="8.2751" r="131.1393" gradientTransform="matrix(1.285 0 0 1 -7.2296 0)" gradientUnits="userSpaceOnUse">
		<stop  offset="0" style="stop-color:#9CBE55"/>
		<stop  offset="3.956800e-02" style="stop-color:#9CBE55"/>
		<stop  offset="0.2766" style="stop-color:#89B74E"/>
		<stop  offset="0.613" style="stop-color:#73B047"/>
		<stop  offset="0.8309" style="stop-color:#6BAD44"/>
		<stop  offset="1" style="stop-color:#6BAD44"/>
	</radialGradient>
	<path style="fill:url(#SVGID_00000178924552423931714640000017818584758253644202_);" d="M159.6-82.2
		c88.9-3.1,162.2,16.3,163.7,43.4s-69.3,51.4-158.2,54.5S3-0.7,1.5-27.7S70.7-79.1,159.6-82.2z"/>
</g>
<g>
	<g>
		<polygon class="st6" points="35.2,93.6 13.6,93.6 13.6,50.1 40.6,50.1 40.6,51.2 14.6,51.2 14.6,92.4 35.2,92.4 		"/>
	</g>
	<g>
		<polygon class="st6" points="312.8,93.6 334.4,93.6 334.4,50.1 307.4,50.1 307.4,51.2 333.4,51.2 333.4,92.4 312.8,92.4 		"/>
	</g>
</g>
<g>
	<path class="st6" d="M45,99.6c-0.9,0-1.8-0.2-2.6-0.5c-0.8-0.3-1.5-0.7-2-1.2l0.8-1.9c0.5,0.4,1,0.8,1.7,1.1
		c0.7,0.3,1.4,0.4,2.1,0.4c0.6,0,1.1-0.1,1.5-0.2c0.4-0.2,0.7-0.4,0.8-0.6s0.3-0.6,0.3-0.9c0-0.4-0.1-0.7-0.4-1
		c-0.3-0.2-0.6-0.4-1-0.6s-0.9-0.3-1.4-0.4c-0.5-0.1-1-0.3-1.5-0.5c-0.5-0.2-0.9-0.4-1.4-0.7c-0.4-0.3-0.7-0.6-1-1.1
		c-0.2-0.5-0.4-1.1-0.4-1.8c0-0.7,0.2-1.4,0.5-2c0.3-0.6,0.9-1.1,1.5-1.5s1.6-0.5,2.6-0.5c0.7,0,1.4,0.1,2.1,0.3s1.3,0.5,1.8,0.9
		l-0.7,1.9c-0.5-0.4-1.1-0.6-1.6-0.8s-1.1-0.3-1.6-0.3c-0.6,0-1.1,0.1-1.4,0.2c-0.4,0.2-0.7,0.4-0.8,0.7c-0.2,0.3-0.3,0.6-0.3,0.9
		c0,0.4,0.1,0.7,0.4,1s0.6,0.4,1,0.6c0.4,0.1,0.9,0.3,1.4,0.4s1,0.3,1.5,0.5c0.5,0.2,0.9,0.4,1.3,0.7c0.4,0.3,0.7,0.6,1,1.1
		s0.4,1,0.4,1.7c0,0.7-0.2,1.4-0.5,2c-0.3,0.6-0.9,1.1-1.6,1.5C47,99.4,46.1,99.6,45,99.6z"/>
	<path class="st6" d="M54.2,99.4V85.9h2.2v13.5H54.2z"/>
	<path class="st6" d="M67.3,99.6c-0.9,0-1.7-0.2-2.5-0.5c-0.8-0.3-1.4-0.8-2-1.5c-0.6-0.6-1-1.4-1.3-2.2c-0.3-0.8-0.5-1.8-0.5-2.8
		s0.2-1.9,0.5-2.8c0.3-0.8,0.8-1.6,1.3-2.2s1.2-1.1,2-1.5c0.8-0.3,1.6-0.5,2.5-0.5c1,0,1.9,0.2,2.7,0.6s1.5,0.9,2,1.6l-1.4,1.5
		c-0.5-0.5-0.9-0.9-1.5-1.2s-1.1-0.4-1.7-0.4c-0.6,0-1.2,0.1-1.7,0.3c-0.5,0.2-1,0.6-1.3,1c-0.4,0.4-0.7,0.9-0.9,1.5
		c-0.2,0.6-0.3,1.2-0.3,1.9c0,0.7,0.1,1.3,0.3,1.9c0.2,0.6,0.5,1.1,0.9,1.5c0.4,0.4,0.8,0.8,1.3,1c0.5,0.2,1.1,0.3,1.7,0.3
		c0.6,0,1.1-0.1,1.7-0.3c0.5-0.2,1.1-0.6,1.5-1.1l1.2,1.9c-0.6,0.6-1.3,1-2.1,1.3C69,99.4,68.2,99.6,67.3,99.6z M69.8,97.5v-5h2v5.3
		L69.8,97.5z"/>
	<path class="st6" d="M77.1,99.4V85.9h1.8l5.1,9.8H83l5-9.8h1.8l0,13.5h-2.1v-9.7h0.4L84,97.9h-1l-4.3-8.2h0.5v9.7H77.1z"/>
	<path class="st6" d="M93.7,99.4l5.2-13.5h2.1l5.3,13.5H104l-4.5-12.1h0.9l-4.5,12.1H93.7z M96.1,96.3l0.6-2h6.3l0.6,2H96.1z"/>
	<path class="st6" d="M119.9,99.6c-0.8,0-1.6-0.1-2.4-0.4c-0.8-0.3-1.4-0.7-2-1.2l0.9-1.9c0.4,0.4,0.9,0.7,1.6,1
		c0.6,0.2,1.2,0.4,1.9,0.4c0.8,0,1.4-0.2,1.8-0.5c0.4-0.4,0.7-0.9,0.7-1.5c0-0.6-0.2-1.1-0.6-1.5c-0.4-0.4-1.1-0.5-1.9-0.5h-1.1
		v-1.7l3.3-4.6l0.3,1h-6.3v-2.1h7.9v1.7l-3.3,4.6l-1.1-0.8h0.7c1.4,0,2.5,0.4,3.2,1.1c0.7,0.7,1.1,1.7,1.1,2.8
		c0,0.8-0.2,1.5-0.5,2.1c-0.3,0.6-0.8,1.2-1.5,1.5C121.8,99.4,120.9,99.6,119.9,99.6z"/>
	<path class="st6" d="M141.5,99.6c-0.9,0-1.7-0.2-2.5-0.5c-0.8-0.3-1.4-0.8-2-1.5c-0.6-0.6-1-1.4-1.3-2.2c-0.3-0.8-0.5-1.8-0.5-2.8
		s0.2-1.9,0.5-2.8c0.3-0.8,0.8-1.6,1.3-2.2s1.2-1.1,2-1.5c0.8-0.3,1.6-0.5,2.5-0.5c1,0,1.9,0.2,2.7,0.6s1.5,0.9,2,1.6l-1.4,1.5
		c-0.5-0.5-0.9-0.9-1.5-1.2s-1.1-0.4-1.7-0.4c-0.6,0-1.2,0.1-1.7,0.3c-0.5,0.2-1,0.6-1.3,1c-0.4,0.4-0.7,0.9-0.9,1.5
		c-0.2,0.6-0.3,1.2-0.3,1.9c0,0.7,0.1,1.3,0.3,1.9c0.2,0.6,0.5,1.1,0.9,1.5c0.4,0.4,0.8,0.8,1.3,1c0.5,0.2,1.1,0.3,1.7,0.3
		c0.6,0,1.1-0.1,1.7-0.3c0.5-0.2,1.1-0.6,1.5-1.1l1.2,1.9c-0.6,0.6-1.3,1-2.1,1.3C143.1,99.4,142.3,99.6,141.5,99.6z M144,97.5v-5h2
		v5.3L144,97.5z"/>
	<path class="st6" d="M151.2,99.4V85.9h4.8c1,0,1.9,0.2,2.7,0.6c0.7,0.4,1.3,0.9,1.7,1.6s0.6,1.6,0.6,2.6c0,1-0.2,1.8-0.6,2.5
		s-1,1.2-1.7,1.6c-0.7,0.4-1.6,0.6-2.7,0.6h-3.6l1-1.1v5H151.2z M153.4,94.6l-1-1.2h3.5c1,0,1.7-0.2,2.2-0.7c0.5-0.5,0.7-1.1,0.7-2
		c0-0.8-0.2-1.5-0.7-2c-0.5-0.5-1.2-0.7-2.2-0.7h-3.5l1-1.2V94.6z M158.9,99.4l-3-4.9h2.3l3,4.9H158.9z"/>
	<path class="st6" d="M167.9,97.3h6.6v2.1h-8.8V85.9h8.5V88h-6.4V97.3z M167.7,91.5h5.8v2.1h-5.8V91.5z"/>
	<path class="st6" d="M177.6,99.4l5.2-13.5h2.1l5.3,13.5H188l-4.5-12.1h0.9l-4.5,12.1H177.6z M180,96.3l0.6-2h6.3l0.6,2H180z"/>
	<path class="st6" d="M195.8,99.4V88H192v-2.1h9.9V88H198v11.3H195.8z"/>
	<path class="st6" d="M208,97.3h6.6v2.1h-8.8V85.9h8.5V88H208V97.3z M207.8,91.5h5.8v2.1h-5.8V91.5z"/>
	<path class="st6" d="M219.3,99.4V85.9h4.8c1,0,1.9,0.2,2.7,0.6c0.7,0.4,1.3,0.9,1.7,1.6c0.4,0.7,0.6,1.6,0.6,2.6
		c0,1-0.2,1.8-0.6,2.5c-0.4,0.7-1,1.2-1.7,1.6c-0.7,0.4-1.6,0.6-2.7,0.6h-3.6l1-1.1v5H219.3z M221.5,94.6l-1-1.2h3.5
		c1,0,1.7-0.2,2.2-0.7c0.5-0.5,0.7-1.1,0.7-2c0-0.8-0.2-1.5-0.7-2c-0.5-0.5-1.2-0.7-2.2-0.7h-3.5l1-1.2V94.6z M227,99.4l-3-4.9h2.3
		l3,4.9H227z"/>
	<path class="st6" d="M240.8,99.4V85.9h1.8l7.3,10.4H249V85.9h2.1v13.5h-1.8L242.1,89h0.9v10.4H240.8z"/>
	<path class="st6" d="M262.1,99.6c-0.9,0-1.7-0.2-2.5-0.5c-0.8-0.3-1.4-0.8-2-1.5c-0.6-0.6-1-1.4-1.3-2.2c-0.3-0.8-0.5-1.8-0.5-2.7
		c0-1,0.2-1.9,0.5-2.8c0.3-0.8,0.8-1.6,1.3-2.2c0.6-0.6,1.2-1.1,2-1.5c0.8-0.3,1.6-0.5,2.5-0.5c0.9,0,1.7,0.2,2.5,0.5
		c0.8,0.3,1.4,0.8,2,1.4c0.6,0.6,1,1.4,1.3,2.2c0.3,0.8,0.5,1.8,0.5,2.8s-0.2,1.9-0.5,2.8c-0.3,0.8-0.7,1.6-1.3,2.2
		c-0.6,0.6-1.2,1.1-2,1.5C263.8,99.4,263,99.6,262.1,99.6z M262.1,97.4c0.6,0,1.1-0.1,1.6-0.3c0.5-0.2,0.9-0.6,1.3-1
		s0.7-0.9,0.9-1.5c0.2-0.6,0.3-1.2,0.3-1.9s-0.1-1.3-0.3-1.9c-0.2-0.6-0.5-1.1-0.9-1.5c-0.4-0.4-0.8-0.7-1.3-1
		c-0.5-0.2-1-0.3-1.6-0.3s-1.1,0.1-1.6,0.3c-0.5,0.2-0.9,0.6-1.3,1c-0.4,0.4-0.7,0.9-0.9,1.5S258,92,258,92.7c0,0.7,0.1,1.3,0.3,1.9
		s0.5,1.1,0.9,1.5c0.4,0.4,0.8,0.8,1.3,1C261,97.3,261.5,97.4,262.1,97.4z"/>
	<path class="st6" d="M273,99.4V85.9h2.2v13.5H273z"/>
	<path class="st6" d="M280.6,99.4V85.9h5.1c1.2,0,2.3,0.3,3.3,0.8c1,0.6,1.7,1.3,2.2,2.4c0.5,1,0.8,2.2,0.8,3.5s-0.3,2.5-0.8,3.5
		s-1.3,1.8-2.2,2.4c-1,0.6-2.1,0.8-3.3,0.8H280.6z M282.8,97.3h2.8c0.9,0,1.6-0.2,2.3-0.6c0.6-0.4,1.1-0.9,1.5-1.6
		c0.4-0.7,0.5-1.5,0.5-2.4c0-0.9-0.2-1.8-0.5-2.4c-0.4-0.7-0.9-1.2-1.5-1.6c-0.6-0.4-1.4-0.6-2.3-0.6h-2.8V97.3z"/>
	<path class="st6" d="M294.9,99.4l5.2-13.5h2.1l5.3,13.5h-2.3l-4.5-12.1h0.9l-4.5,12.1H294.9z M297.3,96.3l0.6-2h6.3l0.6,2H297.3z"
		/>
</g>
<g>
	<path class="st7" d="M40.1,76.8l18.3-41.5H70l18.4,41.5H76.2L61.8,41.1h4.6L52.1,76.8H40.1z M50.1,68.7l3-8.6h20.3l3,8.6H50.1z"/>
	<path class="st7" d="M101.2,76.8V35.3h18.9c3.8,0,7.1,0.6,9.8,1.8c2.8,1.2,4.9,3,6.4,5.3c1.5,2.3,2.2,5,2.2,8.2
		c0,3.2-0.7,5.9-2.2,8.2c-1.5,2.3-3.6,4-6.4,5.2c-2.8,1.2-6.1,1.8-9.8,1.8h-12.5l5.3-5v16H101.2z M113,62.2l-5.3-5.5h11.7
		c2.5,0,4.3-0.5,5.5-1.6c1.2-1.1,1.8-2.6,1.8-4.5c0-1.9-0.6-3.3-1.8-4.4c-1.2-1.1-3.1-1.6-5.5-1.6h-11.7l5.3-5.4V62.2z M126.9,76.8
		l-10.3-15.1h12.5l10.4,15.1H126.9z"/>
	<path class="st7" d="M154.6,76.8V35.3h19.6c4.5,0,8.6,0.9,12,2.6c3.5,1.7,6.2,4.1,8.2,7.2c2,3.1,2.9,6.7,2.9,11c0,4.3-1,8-2.9,11.1
		c-2,3.1-4.7,5.5-8.2,7.2c-3.5,1.7-7.5,2.6-12,2.6H154.6z M166.4,67.5h7.3c2.4,0,4.5-0.5,6.3-1.4c1.8-0.9,3.1-2.2,4.1-3.9
		c1-1.7,1.5-3.7,1.5-6.1c0-2.4-0.5-4.5-1.5-6.1c-1-1.7-2.4-3-4.1-3.9c-1.8-0.9-3.8-1.4-6.3-1.4h-7.3V67.5z"/>
	<path class="st7" d="M224.7,67.7h21.7v9.1h-33.3V35.3h32.5v9.1h-20.9V67.7z M223.9,51.4h19.3v8.7h-19.3V51.4z"/>
	<path class="st7" d="M262.5,76.8V35.3h9.7L295,63h-4.6V35.3h11.5v41.5h-9.7l-22.9-27.6h4.6v27.6H262.5z"/>
</g>
</svg>
